<?xml version="1.0" standalone="no"?>
<!DOCTYPE svg PUBLIC "-//W3C//DTD SVG 20010904//EN"
 "http://www.w3.org/TR/2001/REC-SVG-20010904/DTD/svg10.dtd">
<svg version="1.0" xmlns="http://www.w3.org/2000/svg"
 width="423.000000pt" height="423.000000pt" viewBox="0 0 423.000000 423.000000"
 preserveAspectRatio="xMidYMid meet">
<metadata>
Created by potrace 1.11, written by Peter Selinger 2001-2013
</metadata>
<g transform="translate(0.000000,423.000000) scale(0.100000,-0.100000)"
fill="#000000" stroke="none">
<path d="M2358 3845 c-2 -1 -46 -5 -100 -9 -367 -24 -729 -192 -993 -462 -85
-87 -165 -185 -165 -202 0 -6 -3 -12 -8 -14 -28 -12 -179 -307 -196 -383 -1
-5 -10 -35 -18 -65 -21 -70 -44 -188 -53 -263 -7 -66 -8 -279 -1 -317 2 -14 8
-52 12 -85 4 -33 8 -62 9 -65 28 -123 57 -219 75 -252 6 -10 10 -22 10 -28 0
-22 100 -213 151 -287 16 -23 29 -45 29 -50 0 -4 -208 -216 -462 -470 l-463
-463 115 -115 116 -115 959 960 960 960 632 0 631 0 -4 -37 c-8 -65 -42 -186
-74 -263 -115 -279 -325 -507 -589 -640 -93 -46 -229 -93 -311 -106 -19 -3
-55 -10 -80 -14 -49 -9 -292 -6 -355 4 -72 12 -198 47 -259 72 -33 13 -63 24
-68 24 -5 0 -61 -53 -126 -118 -136 -136 -137 -121 3 -184 130 -58 265 -98
419 -123 83 -14 367 -14 456 0 304 46 608 193 829 400 75 70 71 66 120 122
178 207 317 496 356 746 3 17 10 57 15 87 10 58 6 370 -5 430 -29 159 -85 332
-150 460 -34 67 -110 192 -135 223 -6 7 -24 30 -41 52 -197 258 -554 482 -874
549 -113 23 -135 26 -235 32 -52 3 -103 7 -112 8 -9 2 -18 3 -20 1z m-148
-705 l0 -360 165 0 165 0 0 360 0 361 38 -5 c20 -2 44 -7 52 -10 8 -3 26 -7
40 -10 14 -2 61 -16 105 -31 239 -80 456 -241 601 -446 21 -30 41 -56 44 -59
12 -11 90 -168 113 -230 24 -64 51 -164 62 -227 l5 -33 -697 0 -698 0 -425
-425 -426 -426 -46 78 c-57 97 -111 241 -136 364 -28 134 -24 386 7 514 65
266 205 494 417 676 91 78 273 178 395 218 62 20 178 48 207 50 9 1 12 -77 12
-359z"/>
</g>
</svg>
